<svg width="41" height="41" fill="none" xmlns="http://www.w3.org/2000/svg" stroke-width="1.5" viewBox="0 0 41 41"><path d="M37.5324 16.8707C37.9808 15.5241 38.1363 14.0974 37.9886 12.6859C37.8409 11.2744 37.3934 9.91076 36.676 8.68622C35.6126 6.83404 33.9882 5.3676 32.0373 4.4985C30.0864 3.62941 27.9098 3.40259 25.8215 3.85078C24.8796 2.7893 23.7219 1.94125 22.4257 1.36341C21.1295 0.785575 19.7249 0.491269 18.3058 0.500197C16.1708 0.495044 14.0893 1.16803 12.3614 2.42214C10.6335 3.67624 9.34853 5.44666 8.6917 7.47815C7.30085 7.76286 5.98686 8.3414 4.8377 9.17505C3.68854 10.0087 2.73073 11.0782 2.02839 12.312C0.956464 14.1591 0.498905 16.2988 0.721698 18.4228C0.944492 20.5467 1.83612 22.5449 3.268 24.1293C2.81966 25.4759 2.66413 26.9026 2.81182 28.3141C2.95951 29.7256 3.40701 31.0892 4.12437 32.3138C5.18791 34.1659 6.8123 35.6322 8.76321 36.5013C10.7141 37.3704 12.8907 37.5973 14.9789 37.1492C15.9208 38.2107 17.0786 39.0587 18.3747 39.6366C19.6709 40.2144 21.0755 40.5087 22.4946 40.4998C24.6307 40.5054 26.7133 39.8321 28.4418 38.5772C30.1704 37.3223 31.4556 35.5506 32.1119 33.5179C33.5027 33.2332 34.8167 32.6547 35.9659 31.821C37.115 30.9874 38.0728 29.9178 38.7752 28.684C39.8458 26.8371 40.3023 24.6979 40.0789 22.5748C39.8556 20.4517 38.9639 18.4544 37.5324 16.8707ZM22.4978 37.8849C20.7443 37.8874 19.0459 37.2733 17.6994 36.1501C17.7601 36.117 17.8666 36.0586 17.936 36.0161L25.9004 31.4156C26.1003 31.3019 26.2663 31.137 26.3813 30.9378C26.4964 30.7386 26.5563 30.5124 26.5549 30.2825V19.0542L29.9213 20.998C29.9389 21.0068 29.9541 21.0198 29.9656 21.0359C29.977 21.052 29.9842 21.0707 29.9867 21.0902V30.3889C29.9842 32.375 29.1946 34.2791 27.7909 35.6841C26.3872 37.0892 24.4838 37.8806 22.4978 37.8849ZM6.39227 31.0064C5.51397 29.5047 5.19742 27.7511 5.49804 26.0449C5.55718 26.0543 5.66048 26.0712 5.73461 26.0897L13.699 30.6901C13.8975 30.8058 14.1233 30.866 14.3532 30.8665C14.583 30.8669 14.8092 30.8076 15.0083 30.6929L24.731 25.1L28.0974 27.0438C28.1118 27.0499 28.1241 27.0599 28.1329 27.0725C28.1417 27.0851 28.1467 27.0999 28.1474 27.1151V27.1203C28.1351 27.9171 27.8017 28.6709 27.2147 29.2189C26.6277 29.7669 25.8341 30.0508 25.0373 30.0161L16.118 30.0156C14.7654 30.0151 13.4607 29.4849 12.4978 28.5219C11.5349 27.559 11.0047 26.2542 11.0042 24.9017C11.0034 23.549 11.5328 22.2438 12.4952 21.2805C13.4576 20.3173 14.7617 19.7866 16.1142 19.7856L16.1207 19.7861L19.478 19.7867L19.478 23.1493C19.478 23.3786 19.5648 23.599 19.7196 23.7613C19.8744 23.9236 20.0868 24.0227 20.3161 24.035C20.5454 24.0472 20.7695 23.9715 20.9379 23.8217L32.2175 14.9851C32.6029 15.8352 32.8114 16.7696 32.8296 17.7212C32.8479 18.6728 32.6752 19.6168 32.3249 20.4881C31.9745 21.3594 31.4549 22.1325 30.8043 22.7552C30.1536 23.378 29.3857 23.8334 28.5596 24.08L19.6865 28.8748C19.6865 28.8748 19.6865 28.8748 19.6855 28.8748L10.8025 33.664C10.8025 33.664 10.8025 33.664 10.8015 33.664C9.7088 33.0125 8.83706 32.0289 8.31638 30.8657C7.79569 29.7025 7.65648 28.4125 7.91818 27.1764C8.1799 25.9402 8.83128 24.8143 9.7798 23.9514C10.7284 23.0884 11.9071 22.5289 13.1653 22.3526V26.6702C13.1653 26.8996 13.252 27.12 13.4068 27.2822C13.5617 27.4445 13.7741 27.5436 14.0034 27.556C14.2327 27.5683 14.4567 27.4925 14.6251 27.3427L18.5908 24.3275C18.6207 24.3033 18.6570 24.2879 18.6954 24.2834C18.7339 24.2789 18.7731 24.2854 18.807 24.302L20.837 25.4567C20.8843 25.4846 20.9204 25.5281 20.9386 25.5799C20.9567 25.6318 20.9558 25.6885 20.9361 25.7396L15.7306 38.3647C14.7452 38.2215 13.8035 37.8346 12.9921 37.2376C12.1806 36.6405 11.5234 35.8514 11.0771 34.9398C10.6309 34.0281 10.4089 33.0216 10.4289 32.0073C10.4489 30.9931 10.7103 30.0013 11.193 29.1118L6.39227 31.0064ZM24.6464 9.88201C26.0015 9.8858 27.3125 10.3491 28.3606 11.2033C29.4086 12.0574 30.1354 13.2512 30.4256 14.597L25.1725 16.4427V16.4427L19.7708 19.0258C19.5415 19.1423 19.2705 19.1612 19.0266 19.0776C18.7827 18.994 18.5883 18.8147 18.4879 18.579C18.3875 18.3432 18.3908 18.0733 18.4973 17.8404C18.6037 17.6074 18.8025 17.434 19.049 17.358L24.2595 14.5818C24.347 14.5471 24.4202 14.4867 24.468 14.4095C24.5157 14.3324 24.5355 14.2424 24.5242 14.1539C24.5129 14.0654 24.4711 13.983 24.4047 13.921C24.3383 13.8591 24.2513 13.8216 24.1595 13.8147L24.1135 13.811C23.5896 13.7861 23.0678 13.8407 22.5722 13.9712C22.0767 14.1017 21.6168 14.3058 21.2183 14.5712C20.8198 14.8365 20.4908 15.1578 20.2501 15.5173C20.0095 15.8767 19.8625 16.2666 19.8183 16.6708C19.8183 16.7091 19.8079 16.7474 19.7889 16.7811L15.6488 19.1073L12.2814 17.1636C12.269 17.1599 12.2592 17.1505 12.254 17.1382C12.2488 17.126 12.2486 17.1121 12.2534 17.0997C12.2534 17.0997 12.2534 17.0997 12.2544 17.0987C12.8597 14.2733 14.5997 11.8459 17.0501 10.4029C19.5005 8.9599 22.4195 8.62845 25.1063 9.48776C24.9663 9.67168 24.8252 9.83382 24.6929 9.88987L24.6464 9.88201ZM28.5335 17.3293C28.5345 17.3293 28.536 17.3303 28.537 17.3303L31.8824 19.2646C31.911 19.2787 31.933 19.3033 31.9431 19.3333C31.9533 19.3634 31.9508 19.3959 31.9363 19.424C31.9363 19.424 31.9353 19.426 31.9353 19.426C31.2219 21.6593 29.6189 23.5103 27.5302 24.5846C25.4414 25.6589 23.0323 25.8687 20.7848 25.17L28.5335 17.3293Z" fill="currentColor"></path></svg> 